# Blender v2.78 (sub 0) OBJ File: 'cirlce.blend'
# www.blender.org
mtllib cirlce.mtl
o Circle
v 0.000000 -0.000000 1.000000
v -0.195090 -0.000000 0.980785
v -0.382683 -0.000000 0.923880
v -0.555570 -0.000000 0.831470
v -0.707107 -0.000000 0.707107
v -0.831470 -0.000000 0.555570
v -0.923880 -0.000000 0.382683
v -0.980785 -0.000000 0.195090
v -1.000000 -0.000000 0.000000
v -0.980785 0.000000 -0.195090
v -0.923880 0.000000 -0.382683
v -0.831470 0.000000 -0.555570
v -0.707107 0.000000 -0.707107
v -0.555570 0.000000 -0.831470
v -0.382683 0.000000 -0.923880
v -0.195090 0.000000 -0.980785
v 0.000000 0.000000 -1.000000
v 0.195091 0.000000 -0.980785
v 0.382684 0.000000 -0.923879
v 0.555571 0.000000 -0.831469
v 0.707107 0.000000 -0.707106
v 0.831470 0.000000 -0.555570
v 0.923880 0.000000 -0.382683
v 0.980785 0.000000 -0.195089
v 1.000000 -0.000000 0.000001
v 0.980785 -0.000000 0.195091
v 0.923879 -0.000000 0.382684
v 0.831469 -0.000000 0.555571
v 0.707106 -0.000000 0.707108
v 0.555569 -0.000000 0.831470
v 0.382682 -0.000000 0.923880
v 0.195089 -0.000000 0.980786
v 0.000000 -0.000000 1.000000
v -0.195090 -0.000000 0.980785
v -0.382683 -0.000000 0.923880
v -0.555570 -0.000000 0.831470
v -0.707107 -0.000000 0.707107
v -0.831470 -0.000000 0.555570
v -0.923880 -0.000000 0.382683
v -0.980785 -0.000000 0.195090
v -1.000000 -0.000000 0.000000
v -0.980785 0.000000 -0.195090
v -0.923880 0.000000 -0.382683
v -0.831470 0.000000 -0.555570
v -0.707107 0.000000 -0.707107
v -0.555570 0.000000 -0.831470
v -0.382683 0.000000 -0.923880
v -0.195090 0.000000 -0.980785
v 0.000000 0.000000 -1.000000
v 0.195091 0.000000 -0.980785
v 0.382684 0.000000 -0.923879
v 0.555571 0.000000 -0.831469
v 0.707107 0.000000 -0.707106
v 0.831470 0.000000 -0.555570
v 0.923880 0.000000 -0.382683
v 0.980785 0.000000 -0.195089
v 1.000000 -0.000000 0.000001
v 0.980785 -0.000000 0.195091
v 0.923879 -0.000000 0.382684
v 0.831469 -0.000000 0.555571
v 0.707106 -0.000000 0.707108
v 0.555569 -0.000000 0.831470
v 0.382682 -0.000000 0.923880
v 0.195089 -0.000000 0.980786
v -0.000000 -0.000000 0.005643
v -0.001101 -0.000000 0.005535
v -0.002160 -0.000000 0.005214
v -0.003135 -0.000000 0.004692
v -0.003990 -0.000000 0.003991
v -0.004692 -0.000000 0.003135
v -0.005214 -0.000000 0.002160
v -0.005535 -0.000000 0.001101
v -0.005643 -0.000000 0.000000
v -0.005535 0.000000 -0.001101
v -0.005214 0.000000 -0.002159
v -0.004692 0.000000 -0.003135
v -0.003990 0.000000 -0.003990
v -0.003135 0.000000 -0.004692
v -0.002160 0.000000 -0.005213
v -0.001101 0.000000 -0.005534
v -0.000000 0.000000 -0.005643
v 0.001101 0.000000 -0.005534
v 0.002159 0.000000 -0.005213
v 0.003135 0.000000 -0.004692
v 0.003990 0.000000 -0.003990
v 0.004692 0.000000 -0.003135
v 0.005213 0.000000 -0.002159
v 0.005535 0.000000 -0.001101
v 0.005643 -0.000000 0.000000
v 0.005535 -0.000000 0.001101
v 0.005213 -0.000000 0.002160
v 0.004692 -0.000000 0.003135
v 0.003990 -0.000000 0.003991
v 0.003135 -0.000000 0.004692
v 0.002159 -0.000000 0.005214
v 0.001101 -0.000000 0.005535
vt 0.0000 0.0000
vt 0.0000 0.0000
vt 0.0000 0.0000
vt 0.0000 0.0000
vt 0.0000 0.0000
vt 0.0000 0.0000
vt 0.0000 0.0000
vt 0.0000 0.0000
vt 0.0000 0.0000
vt 0.0000 0.0000
vt 0.0000 0.0000
vt 0.0000 0.0000
vt 0.0000 0.0000
vt 0.0000 0.0000
vt 0.0000 0.0000
vt 0.0000 0.0000
vt 0.0000 0.0000
vt 0.0000 0.0000
vt 0.0000 0.0000
vt 0.0000 0.0000
vt 0.0000 0.0000
vt 0.0000 0.0000
vt 0.0000 0.0000
vt 0.0000 0.0000
vt 0.0000 0.0000
vt 0.0000 0.0000
vt 0.0000 0.0000
vt 0.0000 0.0000
vt 0.0000 0.0000
vt 0.0000 0.0000
vt 0.0000 0.0000
vt 0.0000 0.0000
vt 0.0000 0.0000
vt 0.0000 0.0000
vt 0.0000 0.0000
vt 0.0000 0.0000
vt 0.0000 0.0000
vt 0.0000 0.0000
vt 0.0000 0.0000
vt 0.0000 0.0000
vt 0.0000 0.0000
vt 0.0000 0.0000
vt 0.0000 0.0000
vt 0.0000 0.0000
vt 0.0000 0.0000
vt 0.0000 0.0000
vt 0.0000 0.0000
vt 0.0000 0.0000
vt 0.0000 0.0000
vt 0.0000 0.0000
vt 0.0000 0.0000
vt 0.0000 0.0000
vt 0.0000 0.0000
vt 0.0000 0.0000
vt 0.0000 0.0000
vt 0.0000 0.0000
vt 0.0000 0.0000
vt 0.0000 0.0000
vt 0.0000 0.0000
vt 0.0000 0.0000
vt 0.0000 0.0000
vt 0.0000 0.0000
vt 0.0000 0.0000
vt 0.0000 0.0000
vt 0.0569 0.7368
vt 0.0192 0.6458
vt 0.4973 0.5008
vt 0.4975 0.5013
vt 0.7368 0.0569
vt 0.8187 0.1116
vt 0.5018 0.4978
vt 0.5013 0.4975
vt 0.1116 0.8187
vt 0.4978 0.5018
vt 0.6458 0.0192
vt 0.5008 0.4973
vt 0.1813 0.8884
vt 0.4982 0.5022
vt 0.5492 0.0000
vt 0.5003 0.4972
vt 0.2632 0.9431
vt 0.4987 0.5025
vt 0.4508 0.0000
vt 0.4997 0.4972
vt 0.8187 0.8884
vt 0.7368 0.9431
vt 0.5013 0.5025
vt 0.5018 0.5022
vt 0.3542 0.9808
vt 0.4992 0.5027
vt 0.3542 0.0192
vt 0.4992 0.4973
vt 0.8884 0.8187
vt 0.5022 0.5018
vt 0.4508 1.0000
vt 0.4997 0.5028
vt 0.2632 0.0569
vt 0.4987 0.4975
vt 0.9431 0.7368
vt 0.5025 0.5013
vt 0.5492 1.0000
vt 0.5003 0.5028
vt 0.1813 0.1116
vt 0.4982 0.4978
vt 0.9808 0.6458
vt 0.5027 0.5008
vt 0.6458 0.9808
vt 0.5008 0.5027
vt 0.1116 0.1813
vt 0.4978 0.4982
vt 1.0000 0.5492
vt 0.5028 0.5003
vt 0.0569 0.2632
vt 0.4975 0.4987
vt 1.0000 0.4508
vt 0.5028 0.4997
vt 0.0192 0.3542
vt 0.4973 0.4992
vt 0.9808 0.3542
vt 0.5027 0.4992
vt 0.0000 0.4508
vt 0.4972 0.4997
vt 0.9431 0.2632
vt 0.5025 0.4987
vt 0.0000 0.5492
vt 0.4972 0.5003
vt 0.8884 0.1813
vt 0.5022 0.4982
vn 0.0000 0.0000 1.0000
vn 0.0000 1.0000 0.0000
usemtl Material.002
s off
f 30/1/1 29/2/1 61/3/1 62/4/1
f 17/5/1 16/6/1 48/7/1 49/8/1
f 4/9/1 3/10/1 35/11/1 36/12/1
f 31/13/1 30/1/1 62/4/1 63/14/1
f 18/15/1 17/5/1 49/8/1 50/16/1
f 5/17/1 4/9/1 36/12/1 37/18/1
f 32/19/1 31/13/1 63/14/1 64/20/1
f 19/21/1 18/15/1 50/16/1 51/22/1
f 6/23/1 5/17/1 37/18/1 38/24/1
f 1/25/1 32/19/1 64/20/1 33/26/1
f 20/27/1 19/21/1 51/22/1 52/28/1
f 7/29/1 6/23/1 38/24/1 39/30/1
f 21/31/1 20/27/1 52/28/1 53/32/1
f 8/33/1 7/29/1 39/30/1 40/34/1
f 22/35/1 21/31/1 53/32/1 54/36/1
f 9/37/1 8/33/1 40/34/1 41/38/1
f 23/39/1 22/35/1 54/36/1 55/40/1
f 10/41/1 9/37/1 41/38/1 42/42/1
f 24/43/1 23/39/1 55/40/1 56/44/1
f 11/45/1 10/41/1 42/42/1 43/46/1
f 25/47/1 24/43/1 56/44/1 57/48/1
f 12/49/1 11/45/1 43/46/1 44/50/1
f 26/51/1 25/47/1 57/48/1 58/52/1
f 13/53/1 12/49/1 44/50/1 45/54/1
f 27/55/1 26/51/1 58/52/1 59/56/1
f 14/57/1 13/53/1 45/54/1 46/58/1
f 28/59/1 27/55/1 59/56/1 60/60/1
f 15/61/1 14/57/1 46/58/1 47/62/1
f 2/63/1 1/25/1 33/26/1 34/64/1
f 29/2/1 28/59/1 60/60/1 61/3/1
f 16/6/1 15/61/1 47/62/1 48/7/1
f 3/10/1 2/63/1 34/64/1 35/11/1
f 57/65/2 56/66/2 88/67/2 89/68/2
f 44/69/2 43/70/2 75/71/2 76/72/2
f 58/73/2 57/65/2 89/68/2 90/74/2
f 45/75/2 44/69/2 76/72/2 77/76/2
f 59/77/2 58/73/2 90/74/2 91/78/2
f 46/79/2 45/75/2 77/76/2 78/80/2
f 60/81/2 59/77/2 91/78/2 92/82/2
f 47/83/2 46/79/2 78/80/2 79/84/2
f 34/85/2 33/86/2 65/87/2 66/88/2
f 61/89/2 60/81/2 92/82/2 93/90/2
f 48/91/2 47/83/2 79/84/2 80/92/2
f 35/93/2 34/85/2 66/88/2 67/94/2
f 62/95/2 61/89/2 93/90/2 94/96/2
f 49/97/2 48/91/2 80/92/2 81/98/2
f 36/99/2 35/93/2 67/94/2 68/100/2
f 63/101/2 62/95/2 94/96/2 95/102/2
f 50/103/2 49/97/2 81/98/2 82/104/2
f 37/105/2 36/99/2 68/100/2 69/106/2
f 64/107/2 63/101/2 95/102/2 96/108/2
f 51/109/2 50/103/2 82/104/2 83/110/2
f 38/111/2 37/105/2 69/106/2 70/112/2
f 33/86/2 64/107/2 96/108/2 65/87/2
f 52/113/2 51/109/2 83/110/2 84/114/2
f 39/115/2 38/111/2 70/112/2 71/116/2
f 53/117/2 52/113/2 84/114/2 85/118/2
f 40/119/2 39/115/2 71/116/2 72/120/2
f 54/121/2 53/117/2 85/118/2 86/122/2
f 41/123/2 40/119/2 72/120/2 73/124/2
f 55/125/2 54/121/2 86/122/2 87/126/2
f 42/127/2 41/123/2 73/124/2 74/128/2
f 56/66/2 55/125/2 87/126/2 88/67/2
f 43/70/2 42/127/2 74/128/2 75/71/2
